Coordinates
version=1
nRows=26
nColumns=22
inDegrees=yes

Units are S.I. units (second, meters, Newtons, ...)
If the header above contains a line with 'inDegrees', this indicates whether rotational values are in degrees (yes) or radians (no).

endheader
time	pelvis_tilt	pelvis_list	pelvis_rotation	pelvis_tx	pelvis_ty	pelvis_tz	hip_flexion_r	hip_adduction_r	hip_rotation_r	knee_angle_r	ankle_angle_r	subtalar_angle_r	hip_flexion_l	hip_adduction_l	hip_rotation_l	knee_angle_l	ankle_angle_l	subtalar_angle_l	lumbar_extension	lumbar_bending	lumbar_rotation
      1.39000000	     -2.29347305	     -2.00724545	    -10.02313906	     -1.22990239	      1.01433035	      0.60172418	     22.58463377	      0.57385711	     -0.66432981	    -43.82139564	      8.22619111	      4.08968882	      2.58442165	      2.65340197	     -6.93094404	    -10.55841301	     13.16658460	     -7.65142352	    -11.13166929	      1.26209739	      0.16851481
      1.40000000	     -2.26035890	     -1.97971241	     -9.85842629	     -1.22841847	      1.01419604	      0.60103436	     23.12405693	      0.53126574	     -0.64730980	    -44.45030782	      8.36932849	      4.05353325	      2.33096317	      2.74907857	     -6.77757025	    -10.28603125	     13.19998328	     -7.63443003	    -11.20732704	      1.26183730	     -0.01228954
      1.41000000	     -2.28385775	     -1.94951326	     -9.66258544	     -1.22687039	      1.01399713	      0.60032174	     23.68830648	      0.48123401	     -0.68921219	    -44.94027709	      8.54767626	      4.01240336	      2.16658848	      2.83264609	     -6.62891432	    -10.06816530	     13.17557017	     -7.62718397	    -11.21448952	      1.27623376	     -0.23478503
      1.42000000	     -2.28582475	     -1.96455987	     -9.49779653	     -1.22523535	      1.01386888	      0.59972118	     24.17483109	      0.50331894	     -0.69517784	    -45.26612955	      8.71441227	      3.97813870	      1.97199429	      2.86774791	     -6.46161711	     -9.87033060	     13.24036592	     -7.61297375	    -11.25338562	      1.32807004	     -0.37056836
      1.43000000	     -2.32024081	     -1.96717194	     -9.29092554	     -1.22351377	      1.01370342	      0.59906831	     24.66429883	      0.48911977	     -0.78093801	    -45.45940555	      8.86436635	      3.92612767	      1.85145563	      2.90773157	     -6.29094075	     -9.74487789	     13.25389384	     -7.60799124	    -11.24590302	      1.38229121	     -0.56400892
      1.44000000	     -2.33451534	     -2.00705334	     -9.12391058	     -1.22170968	      1.01360406	      0.59854902	     25.08374453	      0.54241196	     -0.82118323	    -45.49627848	      8.98801554	      3.87381041	      1.70871290	      2.90660633	     -6.11586369	     -9.64826503	     13.32165907	     -7.59954872	    -11.26882886	      1.46142614	     -0.66071571
      1.45000000	     -2.35846327	     -2.05339112	     -8.93477323	     -1.21982481	      1.01350511	      0.59802825	     25.47823299	      0.58963925	     -0.90915762	    -45.39843807	      9.06875036	      3.79933178	      1.60258222	      2.89436165	     -5.92724712	     -9.60898117	     13.38758926	     -7.59394789	    -11.27990377	      1.55231966	     -0.77543347
      1.46000000	     -2.38473761	     -2.10755876	     -8.73948388	     -1.21786363	      1.01341545	      0.59755388	     25.84054109	      0.64443414	     -1.01722118	    -45.16747453	      9.09038361	      3.69975164	      1.52343718	      2.86799528	     -5.75460573	     -9.62611265	     13.46916417	     -7.59340589	    -11.28777879	      1.64745479	     -0.87665814
      1.47000000	     -2.40623427	     -2.17419048	     -8.55949107	     -1.21583060	      1.01333052	      0.59712818	     26.17331882	      0.71723253	     -1.12372006	    -44.82539453	      9.07577145	      3.60563416	      1.44632534	      2.82823362	     -5.58210338	     -9.67086482	     13.56846700	     -7.58948250	    -11.30684425	      1.75431701	     -0.94070259
      1.48000000	     -2.42655489	     -2.24392476	     -8.37370022	     -1.21373403	      1.01324557	      0.59673609	     26.47449573	      0.79645241	     -1.22895000	    -44.36487454	      9.01664304	      3.50378587	      1.38549431	      2.78195974	     -5.40404403	     -9.75643215	     13.68550538	     -7.58420847	    -11.33018659	      1.86044281	     -1.00458998
      1.49000000	     -2.44901895	     -2.32316108	     -8.19902910	     -1.21154091	      1.01314942	      0.59639101	     26.75085316	      0.89016294	     -1.33554415	    -43.79942842	      8.92503674	      3.44350210	      1.31938428	      2.72464988	     -5.22407546	     -9.84135560	     13.81680463	     -7.57523541	    -11.35045130	      1.97332148	     -1.02557477
      1.50000000	     -2.46628830	     -2.40573588	     -8.01604353	     -1.20928991	      1.01304197	      0.59606410	     26.99838964	      0.98844430	     -1.44266397	    -43.13801489	      8.79928155	      3.39287062	      1.26590952	      2.66190455	     -5.03676969	     -9.96861284	     13.96380017	     -7.56698506	    -11.38264705	      2.08813495	     -1.04874816
      1.51000000	     -2.47888752	     -2.49195673	     -7.83130462	     -1.20695734	      1.01291522	      0.59578036	     27.21960082	      1.09708706	     -1.54176326	    -42.39262419	      8.65335051	      3.35803635	      1.20967576	      2.59284802	     -4.84920880	    -10.11014039	     14.12472027	     -7.56110210	    -11.42210203	      2.20076756	     -1.06253251
      1.52000000	     -2.48598748	     -2.57976218	     -7.65604175	     -1.20452923	      1.01276516	      0.59554415	     27.41645016	      1.22016907	     -1.61318609	    -41.57364453	      8.49446208	      3.35343581	      1.14113467	      2.52187709	     -4.66018761	    -10.25266669	     14.29647909	     -7.55989492	    -11.46684072	      2.31270266	     -1.06218348
      1.53000000	     -2.48232916	     -2.67096612	     -7.47996962	     -1.20200585	      1.01259598	      0.59536490	     27.58303954	      1.36020301	     -1.65443605	    -40.69019738	      8.32609193	      3.38361930	      1.05662859	      2.44519328	     -4.47223323	    -10.39942274	     14.47942173	     -7.56658365	    -11.52373344	      2.41945044	     -1.05510742
      1.54000000	     -2.46602958	     -2.76237477	     -7.30633450	     -1.19938808	      1.01241094	      0.59525125	     27.71918918	      1.51760358	     -1.65023409	    -39.75154681	      8.15331679	      3.45549540	      0.94982470	      2.36606160	     -4.28151649	    -10.54191384	     14.66859152	     -7.58209223	    -11.59579085	      2.51943294	     -1.04185039
      1.55000000	     -2.43831562	     -2.85140734	     -7.13612744	     -1.19665511	      1.01220455	      0.59520384	     27.82616128	      1.68901921	     -1.60034243	    -38.76505134	      7.98022701	      3.57058152	      0.81570396	      2.28741292	     -4.08986290	    -10.67121522	     14.86264320	     -7.60447034	    -11.67562244	      2.60862515	     -1.02549129
      1.56000000	     -2.33768480	     -2.94653690	     -6.95418498	     -1.19379276	      1.01208523	      0.59519043	     27.82897163	      1.86566026	     -1.51915943	    -37.72782642	      7.83416303	      3.81409779	      0.58802505	      2.20780448	     -3.91480087	    -10.78683912	     15.05494705	     -7.65020122	    -11.84106915	      2.69157983	     -1.02784844
      1.57000000	     -2.29905584	     -3.02343299	     -6.77491665	     -1.19084864	      1.01181465	      0.59524204	     27.89299593	      2.04677965	     -1.39202565	    -36.66876066	      7.66182291	      4.00043747	      0.42881968	      2.13440172	     -3.73041000	    -10.91468492	     15.25695151	     -7.67234159	    -11.92594584	      2.75786558	     -1.00569819
      1.58000000	     -2.21629799	     -3.09025410	     -6.59266510	     -1.18774928	      1.01157959	      0.59536366	     27.88760374	      2.22450369	     -1.21627115	    -35.57956452	      7.54016777	      4.28924697	      0.18556469	      2.07385535	     -3.53881833	    -10.98734053	     15.45921878	     -7.69333352	    -12.05167983	      2.79747602	     -1.00235615
      1.59000000	     -2.17571180	     -3.15092797	     -6.39065855	     -1.18457608	      1.01122688	      0.59550485	     27.91673620	      2.39678591	     -1.03457129	    -34.47521619	      7.38963291	      4.50087368	      0.01234623	      2.00756419	     -3.35384480	    -11.11463655	     15.68136161	     -7.70278620	    -12.12590300	      2.83581399	     -1.00610295
      1.60000000	     -2.10924467	     -3.20006483	     -6.18037236	     -1.18125829	      1.01087654	      0.59566733	     27.90006705	      2.55303131	     -0.82632019	    -33.35639433	      7.27630087	      4.76680834	     -0.20939836	      1.95515905	     -3.16108274	    -11.21550217	     15.90513463	     -7.70518368	    -12.22072795	      2.86034152	     -1.02347986
      1.61000000	     -2.04093601	     -3.23830327	     -5.96030648	     -1.17780733	      1.01048599	      0.59586453	     27.86851244	      2.69403022	     -0.60380506	    -32.23806665	      7.18385196	      5.04692504	     -0.44593274	      1.91124952	     -2.96053389	    -11.30427145	     16.13439915	     -7.69949480	    -12.30808847	      2.86990546	     -1.05133986
      1.62000000	     -1.97724792	     -3.26533603	     -5.72087663	     -1.17424219	      1.01004378	      0.59607034	     27.83303861	      2.81367725	     -0.37188623	    -31.13166151	      7.10472223	      5.31100306	     -0.67863656	      1.87472831	     -2.74846200	    -11.40040428	     16.36685338	     -7.68699810	    -12.38365993	      2.86875548	     -1.08467036
      1.63000000	     -1.92339267	     -3.28222017	     -5.46678666	     -1.17056520	      1.00954362	      0.59627833	     27.80139865	      2.91064308	     -0.14186801	    -30.04464760	      7.03632256	      5.54184451	     -0.90132590	      1.84534546	     -2.52080492	    -11.50645923	     16.60497262	     -7.66916356	    -12.44201236	      2.86095296	     -1.12299442
      1.64000000	     -1.85686181	     -3.28984820	     -5.19990653	     -1.16675232	      1.00902654	      0.59650262	     27.74796074	      2.98349912	      0.08832806	    -28.98428848	      6.99670482	      5.78573352	     -1.15152486	      1.82271063	     -2.28727041	    -11.59803854	     16.84266717	     -7.63977616	    -12.50711539	      2.84223657	     -1.17952165
